name D:\school\WTK\thesis\model\3dpredictsim\Results\Batchsim_tmt_linear_v2\Pog_s1_tmt_bCst_d02_k2000_ig24_pas.mot
datacolumns 128
datarows 4
range 1.60033485 1.63234155
endheader
time	pelvis_tilt	pelvis_list	pelvis_rotation	pelvis_tx	pelvis_ty	pelvis_tz	hip_flexion_l	hip_adduction_l	hip_rotation_l	hip_flexion_r	hip_adduction_r	hip_rotation_r	knee_angle_l	knee_angle_r	ankle_angle_l	ankle_angle_r	subtalar_angle_l	subtalar_angle_r	tmt_angle_l	tmt_angle_r	mtp_angle_l	mtp_angle_r	lumbar_extension	lumbar_bending	lumbar_rotation	arm_flex_l	arm_add_l	arm_rot_l	arm_flex_r	arm_add_r	arm_rot_r	elbow_flex_l	elbow_flex_r	pro_sup_l	pro_sup_r	glut_med1_l/activation	glut_med2_l/activation	glut_med3_l/activation	glut_min1_l/activation	glut_min2_l/activation	glut_min3_l/activation	semimem_l/activation	semiten_l/activation	bifemlh_l/activation	bifemsh_l/activation	sar_l/activation	add_long_l/activation	add_brev_l/activation	add_mag1_l/activation	add_mag2_l/activation	add_mag3_l/activation	tfl_l/activation	pect_l/activation	grac_l/activation	glut_max1_l/activation	glut_max2_l/activation	glut_max3_l/activation	iliacus_l/activation	psoas_l/activation	quad_fem_l/activation	gem_l/activation	peri_l/activation	rect_fem_l/activation	vas_med_l/activation	vas_int_l/activation	vas_lat_l/activation	med_gas_l/activation	lat_gas_l/activation	soleus_l/activation	tib_post_l/activation	flex_dig_l/activation	flex_hal_l/activation	tib_ant_l/activation	per_brev_l/activation	per_long_l/activation	per_tert_l/activation	ext_dig_l/activation	ext_hal_l/activation	ercspn_l/activation	intobl_l/activation	extobl_l/activation	glut_med1_r/activation	glut_med2_r/activation	glut_med3_r/activation	glut_min1_r/activation	glut_min2_r/activation	glut_min3_r/activation	semimem_r/activation	semiten_r/activation	bifemlh_r/activation	bifemsh_r/activation	sar_r/activation	add_long_r/activation	add_brev_r/activation	add_mag1_r/activation	add_mag2_r/activation	add_mag3_r/activation	tfl_r/activation	pect_r/activation	grac_r/activation	glut_max1_r/activation	glut_max2_r/activation	glut_max3_r/activation	iliacus_r/activation	psoas_r/activation	quad_fem_r/activation	gem_r/activation	peri_r/activation	rect_fem_r/activation	vas_med_r/activation	vas_int_r/activation	vas_lat_r/activation	med_gas_r/activation	lat_gas_r/activation	soleus_r/activation	tib_post_r/activation	flex_dig_r/activation	flex_hal_r/activation	tib_ant_r/activation	per_brev_r/activation	per_long_r/activation	per_tert_r/activation	ext_dig_r/activation	ext_hal_r/activation	ercspn_r/activation	intobl_r/activation	extobl_r/activation	
          1.60033485	         -2.71349535	         -0.82686606	         -4.94232965	          2.00041857	          0.87316820	          0.00214329	         25.61336922	         -0.27193232	         -4.00557079	        -18.54349590	          1.32460302	          5.14278198	         -6.77493730	         -4.30416656	          5.74380169	         -9.59339477	          3.69410007	          5.21007439	          0.01808631	          0.55226726	         -0.11284980	         27.94983382	          0.49816464	          3.25129549	          1.59384574	         -9.06463889	        -13.45302501	         11.32984384	          3.14417206	        -13.46597645	         10.49608818	         17.88245887	         25.76529194	         86.51662706	         86.51662706	          0.06101029	          0.08302484	          0.05331496	          0.05000089	          0.05000166	          0.05006409	          0.06936237	          0.06824021	          0.15074443	          0.05000767	          0.05000079	          0.05000047	          0.05336759	          0.10058133	          0.12883549	          0.14961835	          0.05000522	          0.05000165	          0.05521651	          0.05889312	          0.10229611	          0.16482764	          0.05000012	          0.05000019	          0.05889715	          0.05889088	          0.05000438	          0.05000046	          0.05000190	          0.05000226	          0.05000134	          0.05000020	          0.05000060	          0.05651240	          0.05292848	          0.05889094	          0.05889082	          0.47022608	          0.29492413	          0.19394528	          0.21096299	          0.47303267	          0.26823016	          0.05224284	          0.15074596	          0.14565387	          0.24863918	          0.09136398	          0.07873343	          0.24198922	          0.14752390	          0.09515779	          0.05000198	          0.05000033	          0.05000029	          0.05000035	          0.09622730	          0.05000103	          0.05000025	          0.05000045	          0.05000186	          0.05000182	          0.21913276	          0.05000084	          0.05000062	          0.05003289	          0.05001441	          0.05000530	          0.39425180	          0.69319336	          0.05000093	          0.05016214	          0.05889127	          0.31918474	          0.05867775	          0.06986316	          0.05284582	          0.19340009	          0.28508442	          0.21189567	          0.23683981	          0.19892031	          0.28781259	          0.05000005	          0.07321728	          0.13470815	          0.05000036	          0.05000010	          0.05000030	          0.05000001	          0.05000005	          0.05000005	
          1.61100375	         -2.69908134	         -0.89686238	         -5.10375696	          2.01696655	          0.87173299	          0.00201836	         25.20806223	         -0.15698102	         -3.78030830	        -18.46707070	          1.18785615	          4.91473520	         -6.66160344	         -6.22718832	          5.24713310	        -10.25258482	          3.23007329	          6.22482960	          0.01858822	          0.51752470	         -0.08969171	         28.85085360	          0.69942126	          3.09701466	          1.65371002	        -10.21686561	        -13.45002380	         11.18530044	          2.97451874	        -13.48970049	         10.79533751	         17.89906319	         26.57468154	         86.51662706	         86.51662706	          0.09956790	          0.07049124	          0.27379184	          0.05889107	          0.05889096	          0.05002306	          0.05889094	          0.05793814	          0.13711068	          0.05000041	          0.05000229	          0.09371982	          0.11336368	          0.16560380	          0.18833315	          0.17997166	          0.05000023	          0.06937466	          0.05002506	          0.05000222	          0.08685267	          0.21415730	          0.05889068	          0.05000165	          0.05000551	          0.05000079	          0.11581056	          0.05978733	          0.21395361	          0.22011793	          0.18182772	          0.05000001	          0.05000002	          0.05000000	          0.05000001	          0.05000027	          0.05000017	          0.61562023	          0.32391952	          0.16548369	          0.53891409	          0.56000406	          0.37142557	          0.05000012	          0.12798782	          0.12366448	          0.21110225	          0.07757078	          0.06684713	          0.20545626	          0.12525226	          0.08079188	          0.05000089	          0.05000020	          0.05000017	          0.05000034	          0.08170040	          0.13754792	          0.09842319	          0.05141081	          0.05000642	          0.05000061	          0.18605037	          0.11387697	          0.05136556	          0.05000210	          0.05000121	          0.05000137	          0.33473164	          0.63848302	          0.06936104	          0.05000099	          0.05000071	          0.27099738	          0.13202482	          0.14755009	          0.10897571	          0.16420245	          0.24204524	          0.19671483	          0.20526704	          0.16889126	          0.24436236	          0.05000003	          0.06216388	          0.13568173	          0.05000019	          0.05000006	          0.05000020	          0.05000015	          0.05000049	          0.05000062	
          1.62167265	         -2.67739492	         -0.94971991	         -5.23950516	          2.03380885	          0.87024647	          0.00188964	         24.72763256	         -0.04818194	         -3.51887757	        -18.27372159	          1.03781930	          4.68041574	         -7.20110319	         -8.37472278	          4.53202143	        -10.92826177	          2.76563669	          7.24539445	          0.01431094	          0.46398227	         -0.05189883	         29.41918023	          0.92322079	          2.90896599	          1.70666217	        -11.38617345	        -13.45225984	         11.06442446	          2.73401055	        -13.51941068	         11.06974927	         17.92676699	         27.37340948	         86.51662706	         86.51662706	          0.13399480	          0.06565950	          0.23245874	          0.05000036	          0.05000035	          0.05000067	          0.05000021	          0.05000015	          0.11641110	          0.05000007	          0.05000030	          0.07957104	          0.09624924	          0.18818494	          0.21274699	          0.17903604	          0.05001732	          0.05890187	          0.05000129	          0.12893164	          0.14235009	          0.20030842	          0.05000011	          0.05000026	          0.16034707	          0.05874822	          0.09832674	          0.06936201	          0.19831761	          0.22278937	          0.15735071	          0.05432084	          0.05889257	          0.05000037	          0.05889063	          0.06935729	          0.06131018	          0.52267994	          0.34219271	          0.18143434	          0.45755420	          0.47546022	          0.31535143	          0.05000001	          0.10866548	          0.10499483	          0.17923218	          0.06585995	          0.05889074	          0.17443870	          0.10634297	          0.06859481	          0.05000322	          0.05000030	          0.05000052	          0.05000010	          0.06936631	          0.18238939	          0.25213941	          0.06936948	          0.05888644	          0.08081753	          0.15796240	          0.09668543	          0.05000088	          0.05022052	          0.05887135	          0.05888962	          0.28419718	          0.55160267	          0.05889077	          0.05889094	          0.05026386	          0.23008487	          0.15721966	          0.15721992	          0.14032699	          0.13941278	          0.20550365	          0.16701677	          0.17427795	          0.14339406	          0.20747115	          0.05000004	          0.05277912	          0.14738156	          0.05000013	          0.05000010	          0.05000024	          0.05000043	          0.06199392	          0.06574168	
          1.63234155	         -2.65069640	         -0.98495164	         -5.34825932	          2.05077822	          0.86868652	          0.00176764	         24.15550340	          0.03684723	         -3.23306176	        -17.97346474	          0.87961727	          4.44265490	         -8.13794306	        -10.70916711	          3.95772220	        -11.56261338	          2.26535265	          8.23763378	         -0.00559076	          0.39010532	         -0.19084982	         29.46623264	          1.15351070	          2.68924331	          1.75007346	        -12.53457197	        -13.46481562	         11.00792132	          2.44829215	        -13.55251558	         11.31747136	         17.93529255	         28.16032689	         86.51662706	         86.51662706	          0.25698917	          0.24904517	          0.37450443	          0.26943471	          0.20703319	          0.21499531	          0.06873839	          0.07637141	          0.09883715	          0.06936522	          0.05889124	          0.06755826	          0.08171853	          0.15977474	          0.18062879	          0.18742866	          0.05000045	          0.05001179	          0.05000384	          0.19000847	          0.18546757	          0.20438494	          0.05005456	          0.05000114	          0.13613952	          0.05888258	          0.18727213	          0.05889043	          0.16837762	          0.18915487	          0.13359550	          0.05000030	          0.05000171	          0.05000013	          0.05000003	          0.05888666	          0.05205439	          0.56426392	          0.29053208	          0.15404324	          0.65214991	          0.57536812	          0.33100908	          0.05000005	          0.09226025	          0.08914375	          0.20076703	          0.05591709	          0.05000006	          0.14822586	          0.09028843	          0.05823912	          0.05000605	          0.05000044	          0.05000034	          0.05000047	          0.05889533	          0.18887208	          0.27277377	          0.05889728	          0.05000828	          0.06861698	          0.13411491	          0.08209182	          0.05000212	          0.05000116	          0.05000080	          0.05000107	          0.24129192	          0.51298755	          0.05000016	          0.05000048	          0.05000012	          0.19534892	          0.13348424	          0.13348445	          0.11914185	          0.11836561	          0.17447874	          0.14180222	          0.14796724	          0.12174602	          0.17614935	          0.05000026	          0.11325110	          0.12670285	          0.05000177	          0.13915843	          0.05000157	          0.06273452	          0.05263470	          0.05581702	
